<?xml version="1.0" encoding="iso-8859-1"?>
<!-- Generator: Adobe Illustrator 16.0.0, SVG Export Plug-In . SVG Version: 6.00 Build 0)  -->
<!DOCTYPE svg PUBLIC "-//W3C//DTD SVG 1.1//EN" "http://www.w3.org/Graphics/SVG/1.1/DTD/svg11.dtd">
<svg version="1.1" id="Capa_1" xmlns="http://www.w3.org/2000/svg" xmlns:xlink="http://www.w3.org/1999/xlink" x="0px" y="0px"
	 width="612px" height="612px" viewBox="0 0 612 612" style="enable-background:new 0 0 612 612;" xml:space="preserve">
<g>
	<g>
		<path d="M91.071,399.257l229.5,139.886V72.857l-229.5,139.885H30.367C0,212.743,0,243.838,0,243.838v124.353
			c0,0,0,31.095,30.367,31.095h60.705V399.257z M29.143,241.944h61.841l200.445-110.801v349.714L90.984,367.695H29.143V241.944z"/>
		<path d="M349.714,419.337v32.377c0,0,87.429-36.224,87.429-145.714c0-109.49-87.429-145.714-87.429-145.714v32.378
			c0,0,58.286,24.713,58.286,113.336C408,394.623,349.714,419.337,349.714,419.337z"/>
		<path d="M524.571,471.531V510c0,0,87.429-41.937,87.429-204s-87.429-204-87.429-204v37.828c0,0,58.286,32.173,58.286,166.172
			S524.571,471.531,524.571,471.531z"/>
		<path d="M437.143,443.962v36.896c0,0,87.429-48.086,87.429-174.857s-87.429-174.857-87.429-174.857v35.67
			c0,0,58.286,37.915,58.286,139.187S437.143,443.962,437.143,443.962z"/>
	</g>
</g>
<g>
</g>
<g>
</g>
<g>
</g>
<g>
</g>
<g>
</g>
<g>
</g>
<g>
</g>
<g>
</g>
<g>
</g>
<g>
</g>
<g>
</g>
<g>
</g>
<g>
</g>
<g>
</g>
<g>
</g>
</svg>
